<svg width="24" height="24" viewBox="0 0 24 24" fill="none" xmlns="http://www.w3.org/2000/svg">
<path d="M12 0C5.3832 0 0 5.3832 0 12C0 18.6168 5.3832 24 12 24C18.6168 24 24 18.6168 24 12C24 5.3832 18.6168 0 12 0ZM13.2 19.2H10.8V16.8H13.2V19.2ZM14.3712 13.338C14.136 13.5276 13.9092 13.7088 13.7292 13.8888C13.2396 14.3772 13.2012 14.8212 13.2 14.8404V15H10.8V14.7996C10.8 14.658 10.8348 13.3872 12.0312 12.1908C12.2652 11.9568 12.5556 11.7192 12.8604 11.472C13.7412 10.758 14.3196 10.2372 14.3196 9.5196C14.3057 8.91338 14.055 8.3367 13.6213 7.91294C13.1875 7.48918 12.6052 7.25201 11.9988 7.25217C11.3924 7.25232 10.8102 7.4898 10.3767 7.91378C9.94318 8.33776 9.69283 8.91458 9.6792 9.5208H7.2792C7.2792 6.918 9.3972 4.8 12 4.8C14.6028 4.8 16.7208 6.918 16.7208 9.5208C16.7208 11.4372 15.306 12.5808 14.3712 13.338V13.338Z" fill="white"/>
</svg>
