<svg width="108" height="108" viewBox="0 0 108 108" fill="none" xmlns="http://www.w3.org/2000/svg">
<g filter="url(#filter0_d_19_4)">
<rect x="4" width="100" height="100" rx="8" fill="white"/>
<path d="M37.823 18C35.483 18 33.2388 18.9296 31.5842 20.5842C29.9296 22.2388 29 24.483 29 26.823V73.879C29 75.0376 29.2282 76.1849 29.6716 77.2554C30.115 78.3258 30.7649 79.2985 31.5842 80.1178C32.4035 80.9371 33.3761 81.587 34.4466 82.0304C35.517 82.4738 36.6643 82.702 37.823 82.702C38.9816 82.702 40.129 82.4738 41.1994 82.0304C42.2699 81.587 43.2425 80.9371 44.0618 80.1178C44.8811 79.2985 45.531 78.3258 45.9744 77.2554C46.4178 76.1849 46.646 75.0376 46.646 73.879V60.3916L63.5332 79.6933C64.362 80.6404 65.384 81.3989 66.5305 81.9179C67.677 82.4369 68.9214 82.7042 70.1799 82.702C71.8747 82.702 73.5337 82.2137 74.9583 81.2955C76.3829 80.3773 77.5127 79.0681 78.2127 77.5245C78.9126 75.9809 79.153 74.2684 78.9051 72.5918C78.6572 70.9151 77.9315 69.3454 76.8148 68.0705L60.9363 49.9245L74.2914 32.1197C75.651 30.245 76.2192 27.911 75.8736 25.6211C75.528 23.3312 74.2962 21.2689 72.444 19.8789C70.5917 18.4889 68.2673 17.8826 65.972 18.1908C63.6768 18.499 61.5946 19.6969 60.1746 21.5263L46.646 39.5693V26.823C46.646 24.483 45.7164 22.2388 44.0618 20.5842C42.4072 18.9296 40.163 18 37.823 18Z" fill="#323232"/>
</g>
<defs>
<filter id="filter0_d_19_4" x="0" y="0" width="108" height="108" filterUnits="userSpaceOnUse" color-interpolation-filters="sRGB">
<feFlood flood-opacity="0" result="BackgroundImageFix"/>
<feColorMatrix in="SourceAlpha" type="matrix" values="0 0 0 0 0 0 0 0 0 0 0 0 0 0 0 0 0 0 127 0" result="hardAlpha"/>
<feOffset dy="4"/>
<feGaussianBlur stdDeviation="2"/>
<feComposite in2="hardAlpha" operator="out"/>
<feColorMatrix type="matrix" values="0 0 0 0 0 0 0 0 0 0 0 0 0 0 0 0 0 0 0.25 0"/>
<feBlend mode="normal" in2="BackgroundImageFix" result="effect1_dropShadow_19_4"/>
<feBlend mode="normal" in="SourceGraphic" in2="effect1_dropShadow_19_4" result="shape"/>
</filter>
</defs>
</svg>
